<svg height="96" viewBox="0 -1 453.17809 453" width="96" xmlns="http://www.w3.org/2000/svg"><path d="m64.824219 22.445312c-1.949219 23.128907-26.050781 26.78125-26.050781 26.78125 20.695312.972657 25.851562 28.117188 25.851562 28.117188.441406-19.355469 26.640625-28.40625 26.640625-28.40625-19.625-1.171875-26.441406-26.492188-26.441406-26.492188zm0 0" fill="#d7e057"/><path d="m91.445312 45.945312c-17.207031-1.03125-23.664062-24.046874-23.726562-24.28125-.382812-1.40625-1.734375-2.34375-3.167969-2.207031-1.449219.132813-2.59375 1.285157-2.714843 2.734375-1.722657 20.429688-22.628907 23.929688-23.511719 24.066406-1.523438.230469-2.625 1.582032-2.542969 3.121094.078125 1.542969 1.3125 2.769532 2.855469 2.84375 18.054687.847656 22.996093 25.433594 23.042969 25.683594.273437 1.421875 1.519531 2.433594 2.945312 2.433594.082031 0 .167969-.003906.25-.007813 1.527344-.128906 2.714844-1.386719 2.75-2.921875.390625-17.015625 24.386719-25.554687 24.628906-25.636718 1.347656-.46875 2.183594-1.828126 1.984375-3.246094-.195312-1.417969-1.363281-2.5-2.792969-2.582032zm-27.132812 20.691407c-2.710938-6.265625-7.414062-13.816407-15.171875-17.757813 5.863281-2.804687 12.816406-7.824218 16.402344-16.542968 3.101562 6.144531 8.398437 13.761718 16.667969 17.445312-6.011719 3.28125-13.84375 8.8125-17.898438 16.855469zm0 0" fill="#3a312a"/><path d="m21.425781 56.40625c-1.378906 16.359375-18.421875 18.941406-18.421875 18.941406 14.632813.6875 18.28125 19.886719 18.28125 19.886719.3125-13.6875 18.84375-20.089844 18.84375-20.089844-13.878906-.828125-18.703125-18.738281-18.703125-18.738281zm0 0" fill="#d7e057"/><path d="m40.308594 72.152344c-11.53125-.691406-15.945313-16.375-15.988282-16.53125-.378906-1.402344-1.71875-2.335938-3.164062-2.203125-1.449219.128906-2.597656 1.285156-2.71875 2.734375-1.15625 13.742187-15.292969 16.132812-15.886719 16.226562-1.523437.230469-2.6249998 1.582032-2.54687475 3.121094.08203125 1.542969 1.31249975 2.769531 2.85546875 2.84375 12.070313.566406 15.449219 17.289062 15.480469 17.453125.269531 1.425781 1.515625 2.441406 2.941406 2.441406.085938 0 .167969-.003906.25-.011719 1.53125-.125 2.71875-1.386718 2.753906-2.921874.257813-11.417969 16.664063-17.269532 16.824219-17.324219 1.351563-.46875 2.1875-1.824219 1.992187-3.242188-.195312-1.417969-1.363281-2.503906-2.792968-2.585937zm-19.167969 13.589844c-1.847656-3.773438-4.679687-7.894532-8.894531-10.5625 3.710937-2.082032 7.394531-5.257813 9.742187-9.832032 2.113281 3.75 5.308594 7.910156 9.882813 10.449219-3.699219 2.199219-7.980469 5.480469-10.730469 9.945313zm0 0" fill="#3a312a"/><path d="m21.425781 3.089844c-1.378906 16.359375-18.421875 18.941406-18.421875 18.941406 14.632813.691406 18.28125 19.890625 18.28125 19.890625.3125-13.691406 18.84375-20.089844 18.84375-20.089844-13.878906-.832031-18.703125-18.742187-18.703125-18.742187zm0 0" fill="#d7e057"/><path d="m40.308594 18.835938c-11.53125-.6875-15.945313-16.371094-15.988282-16.527344-.378906-1.402344-1.699218-2.3476565-3.164062-2.207032-1.449219.132813-2.597656 1.289063-2.71875 2.738282-1.15625 13.738281-15.292969 16.132812-15.886719 16.226562-1.523437.230469-2.6249998 1.582032-2.54687475 3.121094.08203125 1.542969 1.31249975 2.769531 2.85546875 2.839844 12.070313.570312 15.449219 17.289062 15.480469 17.453125.269531 1.425781 1.515625 2.441406 2.941406 2.441406.085938 0 .167969-.003906.25-.011719 1.53125-.125 2.71875-1.386718 2.753906-2.921875.257813-11.414062 16.664063-17.265625 16.824219-17.320312 1.351563-.46875 2.1875-1.828125 1.992187-3.246094-.195312-1.417969-1.363281-2.5-2.792968-2.585937zm-19.167969 13.589843c-1.847656-3.769531-4.679687-7.894531-8.894531-10.558593 3.710937-2.082032 7.394531-5.261719 9.742187-9.832032 2.113281 3.746094 5.308594 7.90625 9.882813 10.449219-3.699219 2.199219-7.980469 5.476563-10.730469 9.941406zm0 0" fill="#3a312a"/><path d="m392.28125 68.191406c-11.660156 0-21.109375 9.453125-21.109375 21.109375s9.449219 21.109375 21.109375 21.109375c11.65625 0 21.105469-9.453125 21.105469-21.109375s-9.449219-21.109375-21.105469-21.109375zm0 0" fill="#8ac6dd"/><path d="m392.28125 65.191406c-13.292969 0-24.109375 10.816406-24.109375 24.109375s10.816406 24.109375 24.109375 24.109375 24.105469-10.8125 24.105469-24.109375c0-13.292969-10.816407-24.109375-24.105469-24.109375zm0 42.21875c-9.988281 0-18.109375-8.125-18.109375-18.113281 0-9.980469 8.125-18.105469 18.109375-18.105469s18.105469 8.125 18.105469 18.105469c0 9.988281-8.121094 18.113281-18.105469 18.113281zm0 0" fill="#3a312a"/><path d="m437.179688 141.601562c-7.179688 0-13 5.820313-13 13 0 7.179688 5.820312 13 13 13 7.179687 0 13-5.820312 13-13 0-7.179687-5.820313-13-13-13zm0 0" fill="#8ac6dd"/><path d="m437.179688 138.605469c-8.824219 0-16 7.175781-16 16s7.175781 16 16 16c8.820312 0 16-7.175781 16-16s-7.179688-16-16-16zm0 26c-5.515626 0-10-4.484375-10-10s4.484374-10 10-10c5.511718 0 10 4.484375 10 10 0 5.511719-4.488282 10-10 10zm0 0" fill="#3a312a"/><path d="m401.75 73.871094c1.699219 2.761718 2.679688 6 2.679688 9.480468 0 9.980469-8.121094 18.101563-18.101563 18.101563-3.460937 0-6.699219-.980469-9.441406-2.660156 3.179687 5.179687 8.882812 8.621093 15.402343 8.621093 9.980469 0 18.097657-8.121093 18.097657-18.121093 0-6.519531-3.457031-12.242188-8.636719-15.421875zm0 0" fill="#68a8bc"/><path d="m415.839844 205.441406c-1.867188-11.507812-12.707032-19.320312-24.214844-17.453125-11.507812 1.867188-19.324219 12.707031-17.457031 24.214844 1.871093 11.507813 12.710937 19.324219 24.21875 17.457031 11.507812-1.871094 19.320312-12.710937 17.453125-24.21875zm0 0" fill="#8ac6dd"/><path d="m395 184.71875c-13.292969 0-24.109375 10.8125-24.109375 24.109375 0 13.292969 10.816406 24.105469 24.109375 24.105469s24.105469-10.8125 24.105469-24.105469c0-13.296875-10.816407-24.109375-24.105469-24.109375zm0 42.214844c-9.988281 0-18.109375-8.121094-18.109375-18.105469s8.125-18.109375 18.109375-18.109375 18.105469 8.125 18.105469 18.109375-8.125 18.105469-18.105469 18.105469zm0 0" fill="#3a312a"/><path d="m404.464844 193.398438c1.703125 2.761718 2.679687 6 2.679687 9.480468 0 9.980469-8.117187 18.101563-18.097656 18.101563-3.460937 0-6.699219-.980469-9.441406-2.660157 3.179687 5.179688 8.878906 8.617188 15.402343 8.617188 9.976563 0 18.097657-8.117188 18.097657-18.117188 0-6.523437-3.460938-12.242187-8.640625-15.421874zm0 0" fill="#68a8bc"/><path d="m440.605469 145.230469c.402343 1.058593.621093 2.21875.621093 3.417969 0 5.519531-4.480468 10-10 10-1.199218 0-2.359374-.21875-3.421874-.601563 1.382812 3.820313 5.0625 6.5625 9.382812 6.5625 5.5 0 10-4.480469 10-10 0-4.320313-2.742188-8-6.582031-9.378906zm0 0" fill="#68a8bc"/><path d="m35.082031 200.265625c-11.660156 0-21.109375 9.453125-21.109375 21.109375s9.449219 21.109375 21.109375 21.109375c11.65625 0 21.105469-9.453125 21.105469-21.109375s-9.449219-21.109375-21.105469-21.109375zm0 0" fill="#8ac6dd"/><path d="m35.082031 197.269531c-13.292969 0-24.109375 10.8125-24.109375 24.105469 0 13.296875 10.816406 24.113281 24.109375 24.113281s24.105469-10.816406 24.105469-24.113281c0-13.292969-10.8125-24.105469-24.105469-24.105469zm0 42.214844c-9.988281 0-18.109375-8.125-18.109375-18.109375s8.125-18.109375 18.109375-18.109375 18.105469 8.125 18.105469 18.109375c0 9.988281-8.121094 18.109375-18.105469 18.109375zm0 0" fill="#3a312a"/><path d="m66.160156 153.140625c-7.179687 0-13 5.816406-13 13 0 7.179687 5.820313 13 13 13 7.179688 0 13-5.820313 13-13 0-7.183594-5.820312-13-13-13zm0 0" fill="#8ac6dd"/><path d="m66.160156 150.140625c-8.820312 0-16 7.175781-16 16 0 8.820313 7.179688 16 16 16 8.824219 0 16-7.179687 16-16 0-8.824219-7.175781-16-16-16zm0 26c-5.515625 0-10-4.488281-10-10 0-5.515625 4.484375-10 10-10s10 4.484375 10 10c0 5.511719-4.484375 10-10 10zm0 0" fill="#3a312a"/><path d="m44.546875 205.945312c1.703125 2.761719 2.679687 6 2.679687 9.480469 0 9.980469-8.117187 18.101563-18.097656 18.101563-3.460937 0-6.699218-.980469-9.441406-2.660156 3.179688 5.179687 8.878906 8.621093 15.402344 8.621093 9.976562 0 18.097656-8.121093 18.097656-18.121093 0-6.519532-3.460938-12.242188-8.640625-15.421876zm0 0" fill="#68a8bc"/><path d="m51.175781 299.949219c-11.65625 0-21.109375 9.453125-21.109375 21.109375 0 11.660156 9.453125 21.109375 21.109375 21.109375 11.660157 0 21.109375-9.449219 21.109375-21.109375 0-11.65625-9.449218-21.109375-21.109375-21.109375zm0 0" fill="#8ac6dd"/><path d="m51.175781 296.949219c-13.292969 0-24.109375 10.816406-24.109375 24.109375 0 13.292968 10.816406 24.109375 24.109375 24.109375s24.109375-10.816407 24.109375-24.109375c0-13.292969-10.816406-24.109375-24.109375-24.109375zm0 42.21875c-9.984375 0-18.109375-8.125-18.109375-18.109375s8.125-18.109375 18.109375-18.109375 18.109375 8.125 18.109375 18.109375-8.125 18.109375-18.109375 18.109375zm0 0" fill="#3a312a"/><path d="m60.644531 305.628906c1.699219 2.761719 2.679688 6 2.679688 9.480469 0 9.980469-8.121094 18.101563-18.101563 18.101563-3.457031 0-6.699218-.976563-9.4375-2.65625 3.179688 5.179687 8.878906 8.617187 15.398438 8.617187 9.980468 0 18.101562-8.117187 18.101562-18.117187 0-6.523438-3.460937-12.242188-8.640625-15.425782zm0 0" fill="#68a8bc"/><path d="m69.589844 156.761719c.398437 1.0625.617187 2.222656.617187 3.421875 0 5.519531-4.480469 10-10 10-1.199219 0-2.359375-.222656-3.417969-.601563 1.378907 3.820313 5.058594 6.5625 9.378907 6.5625 5.5 0 10-4.480469 10-10 0-4.320312-2.738281-8-6.578125-9.382812zm0 0" fill="#68a8bc"/><path d="m345.3125 28c-5.917969-13.621094-19.5-23.140625-35.320312-23.140625h-165.71875c-15.820313 0-29.398438 9.519531-35.320313 23.140625-2.058594 4.71875-3.199219 9.917969-3.199219 15.378906v309.601563c0 5.457031 1.140625 10.660156 3.199219 15.359375 5.921875 13.617187 19.5 23.160156 35.320313 23.160156h165.71875c15.820312 0 29.402343-9.542969 35.320312-23.160156 2.0625-4.699219 3.203125-9.902344 3.203125-15.359375v-309.601563c0-5.460937-1.140625-10.660156-3.203125-15.378906zm0 0" fill="#fce8cb"/><path d="m348.066406 26.804688c-6.585937-15.15625-21.53125-24.949219-38.074218-24.949219h-34.683594c-1.65625 0-3 1.34375-3 3s1.34375 3 3 3h34.683594c14.152343 0 26.9375 8.378906 32.570312 21.339843 1.960938 4.484376 2.953125 9.257813 2.953125 14.179688v309.601562c0 4.929688-.992187 9.691407-2.953125 14.167969-5.640625 12.96875-18.425781 21.355469-32.570312 21.355469h-165.71875c-14.148438 0-26.929688-8.382812-32.574219-21.363281-1.957031-4.464844-2.945313-9.230469-2.945313-14.160157v-309.601562c0-4.925781.988282-9.695312 2.949219-14.183594 5.632813-12.957031 18.417969-21.335937 32.570313-21.335937h102.59375c1.660156 0 3-1.34375 3-3s-1.339844-3-3-3h-102.59375c-16.542969 0-31.484376 9.792969-38.070313 24.941406-2.285156 5.246094-3.449219 10.824219-3.449219 16.578125v309.601562c0 5.765626 1.164063 11.339844 3.449219 16.554688 6.589844 15.167969 21.535156 24.964844 38.070313 24.964844h165.71875c16.539062 0 31.480468-9.796875 38.070312-24.957032 2.292969-5.226562 3.453125-10.800781 3.453125-16.5625v-309.601562c0-5.753906-1.160156-11.332031-3.449219-16.570312zm0 0" fill="#3a312a"/><path d="m108.953125 28c-2.058594 4.71875-3.199219 9.917969-3.199219 15.378906v309.601563c0 5.457031 1.140625 10.660156 3.199219 15.359375 13.859375-4.359375 23.921875-17.320313 23.921875-32.640625v-275.0625c0-15.316407-10.0625-28.277344-23.921875-32.636719zm0 0" fill="#d7e057"/><path d="m132.875 177.785156c1.65625 0 3-1.34375 3-3v-114.148437c0-16.339844-10.457031-30.605469-26.019531-35.5-1.464844-.460938-3.039063.257812-3.652344 1.660156-2.285156 5.246094-3.449219 10.824219-3.449219 16.578125v309.601562c0 5.765626 1.164063 11.339844 3.453125 16.5625.488281 1.121094 1.582031 1.796876 2.746094 1.796876.300781 0 .601563-.042969.902344-.136719 15.5625-4.894531 26.019531-19.164063 26.019531-35.503907v-131.472656c0-1.65625-1.34375-3-3-3-1.660156 0-3 1.34375-3 3v131.472656c0 12.765626-7.609375 24.023438-19.195312 28.824219-1.28125-3.691406-1.925782-7.5625-1.925782-11.542969v-309.601562c0-3.976562.648438-7.855469 1.925782-11.558594 11.585937 4.800782 19.191406 16.054688 19.191406 28.820313v114.148437c.003906 1.65625 1.34375 3 3.003906 3zm0 0" fill="#3a312a"/><path d="m345.3125 28c-13.859375 4.359375-23.917969 17.320312-23.917969 32.640625v275.058594c0 15.320312 10.058594 28.28125 23.917969 32.640625 2.0625-4.699219 3.203125-9.902344 3.203125-15.359375v-309.601563c0-5.460937-1.140625-10.660156-3.203125-15.378906zm0 0" fill="#d7e057"/><path d="m348.0625 26.796875c-.613281-1.402344-2.1875-2.121094-3.648438-1.660156-15.5625 4.894531-26.019531 19.160156-26.019531 35.5v275.058593c0 16.339844 10.457031 30.609376 26.019531 35.503907.296876.09375.601563.136719.898438.136719 1.164062 0 2.257812-.679688 2.75-1.796876 2.292969-5.226562 3.453125-10.796874 3.453125-16.5625v-309.601562c0-5.753906-1.160156-11.332031-3.453125-16.578125zm-2.546875 326.179687c0 3.980469-.648437 7.851563-1.925781 11.542969-11.585938-4.800781-19.195313-16.058593-19.195313-28.824219v-275.058593c0-12.765625 7.605469-24.019531 19.191407-28.820313 1.28125 3.707032 1.929687 7.585938 1.929687 11.558594zm0 0" fill="#3a312a"/><path d="m330.90625 416.71875h-207.546875c-14.117187 0-25.558594 11.445312-25.558594 25.558594v6.441406h258.664063v-6.441406c.003906-14.117188-11.441406-25.558594-25.558594-25.558594zm0 0" fill="#87796f"/><path d="m330.90625 413.71875h-207.546875c-15.746094 0-28.558594 12.808594-28.558594 28.558594v6.441406c0 1.652344 1.339844 3 3 3h258.667969c1.65625 0 3-1.347656 3-3v-6.441406c0-15.746094-12.8125-28.558594-28.5625-28.558594zm22.5625 32h-252.667969v-3.441406c0-12.441406 10.121094-22.558594 22.558594-22.558594h207.546875c12.441406 0 22.5625 10.121094 22.5625 22.558594zm0 0" fill="#3a312a"/><path d="m262.691406 96.945312c-3.066406-18.898437-20.871094-31.730468-39.769531-28.664062s-31.734375 20.875-28.667969 39.773438c3.066406 18.898437 20.875 31.730468 39.773438 28.664062 18.898437-3.066406 31.734375-20.875 28.664062-39.773438zm0 0" fill="#8ac6dd"/><path d="m228.46875 64.835938c-20.769531 0-37.667969 16.898437-37.667969 37.667968 0 20.769532 16.898438 37.664063 37.667969 37.664063s37.664062-16.894531 37.664062-37.664063c0-20.769531-16.894531-37.667968-37.664062-37.667968zm0 69.332031c-17.460938 0-31.667969-14.207031-31.667969-31.664063 0-17.460937 14.207031-31.667968 31.667969-31.667968s31.664062 14.207031 31.664062 31.667968c0 17.457032-14.203124 31.664063-31.664062 31.664063zm0 0" fill="#3a312a"/><path d="m228.46875 85.171875c-9.574219 0-17.332031 7.757813-17.332031 17.332031 0 9.570313 7.757812 17.332032 17.332031 17.332032 9.570312 0 17.332031-7.761719 17.332031-17.332032 0-9.574218-7.761719-17.332031-17.332031-17.332031zm0 0" fill="#d7e057"/><path d="m228.46875 82.171875c-11.210938 0-20.332031 9.121094-20.332031 20.332031 0 11.207032 9.121093 20.332032 20.332031 20.332032s20.328125-9.125 20.328125-20.332032c0-11.210937-9.117187-20.332031-20.328125-20.332031zm0 34.664063c-7.902344 0-14.332031-6.429688-14.332031-14.332032s6.425781-14.332031 14.332031-14.332031c7.902344 0 14.328125 6.429687 14.328125 14.332031s-6.425781 14.332032-14.328125 14.332032zm0 0" fill="#3a312a"/><path d="m144.6875 391.5h163.804688v25.21875h-163.804688zm0 0" fill="#87796f"/><path d="m308.492188 388.5h-163.804688c-1.65625 0-3 1.34375-3 3v25.21875c0 1.652344 1.34375 3 3 3h163.804688c1.65625 0 3-1.347656 3-3v-25.21875c0-1.65625-1.34375-3-3-3zm-3 25.21875h-157.804688v-19.21875h157.804688zm0 0" fill="#3a312a"/><g fill="#6b5b51"><path d="m284.667969 394.5h21.226562v19.21875h-21.226562zm0 0"/><path d="m330.910156 419.71875h-24.578125c12.4375 0 22.558594 10.117188 22.558594 22.558594v3.441406h24.578125v-3.441406c0-12.4375-10.117188-22.558594-22.558594-22.558594zm0 0"/></g></svg>